<svg width="32" height="32" viewBox="0 0 80 40" xmlns="http://www.w3.org/2000/svg">
  <defs>
    <linearGradient id="loopGradient" x1="0%" y1="0%" x2="100%" y2="100%">
      <stop offset="0%" style="stop-color:#4CAF50;stop-opacity:1">
        <animate attributeName="stop-color" values="#4CAF50;#2E7D32;#4CAF50" dur="3s" repeatCount="indefinite"/>
      </stop>
      <stop offset="100%" style="stop-color:#2E7D32;stop-opacity:1">
        <animate attributeName="stop-color" values="#2E7D32;#1B5E20;#2E7D32" dur="3s" repeatCount="indefinite"/>
      </stop>
    </linearGradient>
    
    <filter id="glow">
      <feGaussianBlur stdDeviation="1.5" result="coloredBlur"/>
      <feMerge>
        <feMergeNode in="coloredBlur"/>
        <feMergeNode in="SourceGraphic"/>
      </feMerge>
    </filter>
    
    <path id="motionPath" d="M10,20 C20,10 30,10 40,20 C50,30 60,30 70,20 C60,10 50,10 40,20 C30,30 20,30 10,20" fill="none"/>
  </defs>

  <g transform="translate(2, 2)" filter="url(#glow)">
    <path d="M10,20 C20,10 30,10 40,20 C50,30 60,30 70,20 C60,10 50,10 40,20 C30,30 20,30 10,20" 
          fill="none" 
          stroke="url(#loopGradient)" 
          stroke-width="6">
      <animate attributeName="stroke-dasharray" 
               values="0,1000;200,0" 
               dur="3s" 
               repeatCount="indefinite"/>
    </path>
    
    <circle r="3.5" fill="#81C784">
      <animateMotion dur="3s" repeatCount="indefinite">
        <mpath href="#motionPath"/>
      </animateMotion>
    </circle>
    
    <circle r="3.5" fill="#4CAF50">
      <animateMotion dur="3s" repeatCount="indefinite" begin="1s">
        <mpath href="#motionPath"/>
      </animateMotion>
    </circle>
    
    <circle r="3.5" fill="#2E7D32">
      <animateMotion dur="3s" repeatCount="indefinite" begin="2s">
        <mpath href="#motionPath"/>
      </animateMotion>
    </circle>
  </g>
</svg>