<svg width="160" height="40" viewBox="0 0 160 40" xmlns="http://www.w3.org/2000/svg">
  <defs>
    <!-- Gradient for infinity loops -->
    <linearGradient id="loopGradient" x1="0%" y1="0%" x2="100%" y2="100%">
      <stop offset="0%" style="stop-color:rgb(34, 197, 94);stop-opacity:1">
        <animate attributeName="stop-color" values="rgb(34, 197, 94);rgb(22, 163, 74);rgb(34, 197, 94)" dur="3s" repeatCount="indefinite"/>
      </stop>
      <stop offset="100%" style="stop-color:rgb(22, 163, 74);stop-opacity:1">
        <animate attributeName="stop-color" values="rgb(22, 163, 74);rgb(21, 128, 61);rgb(22, 163, 74)" dur="3s" repeatCount="indefinite"/>
      </stop>
    </linearGradient>
    
    <!-- Glow effect -->
    <filter id="glow">
      <feGaussianBlur stdDeviation="1" result="coloredBlur"/>
      <feMerge>
        <feMergeNode in="coloredBlur"/>
        <feMergeNode in="SourceGraphic"/>
      </feMerge>
    </filter>
    
    <!-- Motion path for particles -->
    <path id="motionPath" d="M10,20 C20,10 30,10 40,20 C50,30 60,30 70,20 C60,10 50,10 40,20 C30,30 20,30 10,20" fill="none"/>
  </defs>

  <!-- Infinity Loop -->
  <g transform="translate(2, 2)" filter="url(#glow)">
    <path d="M10,20 C20,10 30,10 40,20 C50,30 60,30 70,20 C60,10 50,10 40,20 C30,30 20,30 10,20" 
          fill="none" 
          stroke="url(#loopGradient)" 
          stroke-width="4">
      <animate attributeName="stroke-dasharray" 
               values="0,1000;200,0" 
               dur="3s" 
               repeatCount="indefinite"/>
    </path>
    
    <!-- Animated particles -->
    <circle r="2" fill="rgb(34, 197, 94)">
      <animateMotion dur="3s" repeatCount="indefinite">
        <mpath href="#motionPath"/>
      </animateMotion>
    </circle>
    
    <circle r="2" fill="rgb(22, 163, 74)">
      <animateMotion dur="3s" repeatCount="indefinite" begin="1s">
        <mpath href="#motionPath"/>
      </animateMotion>
    </circle>
    
    <circle r="2" fill="rgb(21, 128, 61)">
      <animateMotion dur="3s" repeatCount="indefinite" begin="2s">
        <mpath href="#motionPath"/>
      </animateMotion>
    </circle>
  </g>

  <!-- Text "IRIS" -->
  <text x="85" y="28" font-family="Arial, sans-serif" font-size="24" font-weight="bold" fill="white" filter="url(#glow)">
    <tspan style="letter-spacing: 1px;">IRIS</tspan>
  </text>
</svg>